<?xml version="1.0" encoding="UTF-8"?>
<svg  fill="#27ae60" version="1.1" viewBox="0 0 1200 1200" width="1280" height="1280" xmlns="http://www.w3.org/2000/svg">
<path transform="translate(580,200)" d="m0 0h40l25 2 32 5 30 7 22 7 22 8 24 11 23 12 18 11 16 11 17 13 13 11 12 11 7 7 4-2 114-114h1v350h-350l6-7 154-154-6-7-11-10-17-13-14-10-15-9-23-12-24-10-26-8-23-5-21-3-13-1h-34l-29 3-29 6-20 6-22 8-27 13-23 14-19 14-14 12-15 14-12 13-11 14-11 15-12 20-12 23-9 23-7 22-6 27-3 22-1 13v34l3 29 6 29 6 20 8 22 13 27 12 20 10 14 11 14 10 11 7 8 8 8 8 7 16 13 19 13 15 9 21 11 25 10 22 7 27 6 22 3 13 1h33l23-2 28-5 25-7 20-7 24-11 18-10 21-14 13-10 14-12 22-22 9-11 12-16 11-17 12-22 10-22 4-11h104l-1 7-8 26-11 28-14 29-16 27-11 16-13 17-11 13-9 10-14 15-10 9-11 10-10 8-16 12-15 10-20 12-23 12-22 10-24 9-31 9-36 7-25 3-15 1h-40l-25-2-32-5-30-7-23-7-28-11-24-11-23-13-19-12-18-13-17-14-20-18-15-15-7-8-11-13-15-20-13-20-11-19-11-21-11-26-12-36-6-24-6-36-2-21v-56l3-29 5-28 7-28 12-35 13-29 11-21 13-21 11-16 10-13 9-11 10-11 7-8 16-16 8-7 14-12 16-12 21-14 15-9 20-11 27-12 30-11 26-7 29-6 31-4z"/>
</svg>
